<svg xmlns="http://www.w3.org/2000/svg" xmlns:xlink="http://www.w3.org/1999/xlink" viewBox="0 0 226.77 79.73"><defs><style>.a{fill:#2C2543;}.b{fill:url(#a);}.c{fill:#ffc926;}</style><linearGradient id="a" x1="22.91" y1="32.41" x2="16.63" y2="49.66" gradientTransform="matrix(1, 0, 0, -1, 0, 80)" gradientUnits="userSpaceOnUse"><stop offset="0.7" stop-color="#ffc926"/><stop offset="1" stop-color="#ce9c2d"/></linearGradient></defs><title>logo</title><path class="a" d="M2.29,10.64a2.22,2.22,0,0,1,2.22,2.22V47A2.22,2.22,0,1,1,.07,47V12.85A2.22,2.22,0,0,1,2.29,10.64ZM44,49.19A2.22,2.22,0,0,1,41.74,47V24.51C41.74,17,47,10.64,57,10.64S72.26,17.1,72.26,24.34c0,10.5,0,22.63,0,22.63a2.22,2.22,0,0,1-4.44,0s0-13,0-22.3c0-3.91-2.69-9.6-10.78-9.6S46.23,20.5,46.18,24.78c-.11,9.34,0,22.19,0,22.19A2.21,2.21,0,0,1,44,49.19Zm59.15,0A19.28,19.28,0,1,1,122.4,29.92,19.28,19.28,0,0,1,103.12,49.19Zm0-34.12A14.84,14.84,0,1,0,118,29.92,14.84,14.84,0,0,0,103.12,15.07ZM136,.1a2.22,2.22,0,0,1,2.22,2.22V47a2.22,2.22,0,1,1-4.44,0V2.31A2.22,2.22,0,0,1,136,.1Zm46.52,14.2-13.9,17.09V47a2.22,2.22,0,1,1-4.44,0V31.32l-13.88-17a2.22,2.22,0,0,1,3.39-2.87l12.73,15.66,12.69-15.65a2.23,2.23,0,0,1,3.41,2.88Zm43.77,0-12.73,16,12.69,15.32a2.22,2.22,0,0,1-3.42,2.82L210.73,33.69,198.59,48.38a2.21,2.21,0,1,1-3.41-2.82l12.68-15.34-12.71-16a2.22,2.22,0,0,1,3.43-2.82l12.17,15.31,12.19-15.31a2.21,2.21,0,1,1,3.41,2.82Z" transform="translate(-0.07 -0.1)"/><path class="b" d="M13.72,30.57l-1.86,1.74a3,3,0,0,1-2,.8L26.59,48.53a2.22,2.22,0,0,0,3-3.24Z" transform="translate(-0.07 -0.1)"/><path class="c" d="M29.72,11.49a2.22,2.22,0,0,1-.11,3.14L11.32,31.74a2.22,2.22,0,0,1-3.14-.11c-.84-.9-1.55-1.75-1.55-1.75l20-18.5A2.22,2.22,0,0,1,29.72,11.49Z" transform="translate(-0.07 -0.1)"/><path class="a" d="M163.33,66.22c-2.06,0-4.34.8-4.34,1.64,0,.48.29,1.12.84,1.12s1.28-.93,3.44-.93c2.76,0,3.79.53,3.79,2.58v.55h-1.64c-4.46,0-7.48.9-7.48,4.4,0,2.89,1.93,4.24,4.37,4.24a6.42,6.42,0,0,0,4.85-2.47v1.41a.88.88,0,0,0,1,.83c.61,0,1-.35,1-.83V70.63C169.14,67.42,167.63,66.22,163.33,66.22Zm3.73,8.47c0,1.44-2.18,3.37-4.24,3.37A2.5,2.5,0,0,1,160,75.39c0-2.47,2.73-2.76,5.68-2.76h1.35v2.06Z" transform="translate(-0.07 -0.1)"/><path class="a" d="M181.36,68.14a1,1,0,0,0,0-1.93h-1.12c-2.09,0-2.85,1.06-3.56,2.35V67c0-.45-.45-.77-1-.77s-1,.32-1,.77V79a1,1,0,0,0,1,.84,1,1,0,0,0,1.06-.84V72.64c0-2.92,1.37-4.5,3.49-4.5Z" transform="translate(-0.07 -0.1)"/><path class="a" d="M189,72.23a3.89,3.89,0,0,1,3.82-4.08,4.18,4.18,0,0,1,4,4.08V79a.94.94,0,0,0,1,.84c.51,0,1.06-.29,1.06-.84V72.23a5.92,5.92,0,0,0-5.72-6,4.79,4.79,0,0,0-4.3,2.44V67.18a.88.88,0,0,0-1-.77c-.61,0-1,.32-1,.77V79a1,1,0,0,0,1,.84A1,1,0,0,0,189,79Z" transform="translate(-0.07 -0.1)"/><path class="a" d="M52.17,79.82a6.19,6.19,0,0,0,6.1-6V67c0-.42-.45-.77-1-.77s-1.06.35-1.06.77v6.82a4,4,0,1,1-8,0V67a1,1,0,0,0-1-.8,1,1,0,0,0-1.06.8v6.79A6.17,6.17,0,0,0,52.17,79.82Z" transform="translate(-0.07 -0.1)"/><path class="a" d="M64.79,61.59a1.4,1.4,0,0,0-1.44,1.32,1.42,1.42,0,0,0,1.44,1.35,1.39,1.39,0,0,0,1.38-1.35A1.36,1.36,0,0,0,64.79,61.59Z" transform="translate(-0.07 -0.1)"/><path class="a" d="M64.79,66.19c-.58,0-1,.32-1,.77V79a1,1,0,0,0,1,.84A1,1,0,0,0,65.85,79V67C65.85,66.51,65.36,66.19,64.79,66.19Zm0-3.92a1,1,0,0,0-1.07,1,1.05,1.05,0,0,0,1.07,1,1,1,0,0,0,1-1A1,1,0,0,0,64.83,62.27Z" transform="translate(-0.07 -0.1)"/><path class="a" d="M72.78,60.67c-.58,0-1,.32-1,.77V79a1,1,0,0,0,1,.84A1,1,0,0,0,73.84,79V61.44C73.84,61,73.39,60.67,72.78,60.67Z" transform="translate(-0.07 -0.1)"/><path class="a" d="M135.71,60.67c-.58,0-1,.32-1,.77V79a1,1,0,0,0,1,.84,1,1,0,0,0,1.06-.84V61.44C136.77,61,136.32,60.67,135.71,60.67Z" transform="translate(-0.07 -0.1)"/><path class="a" d="M81.77,68.15h4.14a.88.88,0,0,0,0-1.73H81.77v-5c0-.45-.55-.77-1.06-.77s-1,.32-1,.77V75.1c0,3.31,1.77,4.72,5.07,4.72h.9a.95.95,0,1,0,0-1.9h-.9c-2.22,0-3-.74-3-2.83Z" transform="translate(-0.07 -0.1)"/><path class="a" d="M100.94,68.15h4.14a.88.88,0,0,0,0-1.73h-4.14v-5c0-.45-.55-.77-1.06-.77s-1,.32-1,.77V75.1c0,3.31,1.77,4.72,5.07,4.72h.9a.95.95,0,1,0,0-1.9h-.9c-2.22,0-3-.74-3-2.83Z" transform="translate(-0.07 -0.1)"/><path class="a" d="M115.74,66.22a6.81,6.81,0,1,0,6.58,6.8A6.69,6.69,0,0,0,115.74,66.22Zm0,11.51a4.71,4.71,0,1,1,4.52-4.7A4.61,4.61,0,0,1,115.74,77.72Z" transform="translate(-0.07 -0.1)"/><path class="a" d="M34.61,66.2a6.43,6.43,0,0,0-4.52,1.88V61.44c0-.45-.45-.77-1.06-.77s-1,.32-1,.77V79a1,1,0,0,0,1,.83A1,1,0,0,0,30.09,79V77.93a6.43,6.43,0,0,0,4.52,1.88,6.81,6.81,0,0,0,0-13.6Zm0,11.51A4.71,4.71,0,1,1,39.13,73,4.61,4.61,0,0,1,34.61,77.71Z" transform="translate(-0.07 -0.1)"/><path class="a" d="M154.24,72.06c0,2.47-1.38,2.57-2.79,2.57h-7.26c0,1.92,2.06,3.36,4.88,3.36,2.54,0,3.15-1.28,3.85-1.28a1.06,1.06,0,0,1,.9,1c0,.77-1.83,2.12-4.82,2.12-4,0-6.9-2.44-6.9-6.1V72.13a6.07,6.07,0,0,1,6.14-5.91A5.9,5.9,0,0,1,154.24,72.06Zm-3.63,1c1.29,0,1.6-.19,1.6-1.09a4,4,0,0,0-4-4,4,4,0,0,0-4,3.92v1.22Z" transform="translate(-0.07 -0.1)"/></svg>
